<?xml version="1.0" encoding="UTF-8"?>
<svg version="1.1" xmlns="http://www.w3.org/2000/svg" width="512" height="512">
<path d="M0 0 C4.8143755 4.57365673 6.75156236 7.6837462 7 14.375 C7.06772779 20.87686768 4.24534375 24.47540288 -0.06903076 29.17108154 C-1.04186818 30.14362606 -2.02013503 31.11076094 -3.00292969 32.07324219 C-3.53996017 32.60735214 -4.07699066 33.1414621 -4.6302948 33.6917572 C-5.78753198 34.84142891 -6.94707238 35.98878607 -8.10869598 37.13402557 C-9.94527929 38.94495234 -11.77542761 40.76216777 -13.60406494 42.58111572 C-17.48045448 46.43473217 -21.36466877 50.28040179 -25.25 54.125 C-29.76684755 58.59468 -34.28044768 63.06754042 -38.78574371 67.54886627 C-40.59213201 69.34225609 -42.40441908 71.12953907 -44.21697998 72.91668701 C-45.31649538 74.0089422 -46.41573368 75.10147644 -47.51464844 76.19433594 C-48.2766581 76.94084663 -48.2766581 76.94084663 -49.05406189 77.70243835 C-50.24126271 78.88927291 -51.3764801 80.12771291 -52.5 81.375 C-52.5 82.035 -52.5 82.695 -52.5 83.375 C-50.46800893 84.93174278 -48.42975927 86.37988667 -46.3125 87.8125 C-36.83212683 94.40347784 -27.92405381 101.63652251 -19.90625 109.96875 C-18.38923727 111.54471004 -18.38923727 111.54471004 -16 113.3125 C-13.12996526 115.68027866 -10.85106352 118.29508101 -8.44140625 121.12109375 C-6.40624765 123.48384328 -4.30118587 125.76987777 -2.1875 128.0625 C16.84603018 149.27495282 44.61269813 184.38928321 47.875 213.75 C47.27114203 219.5872937 45.18729457 223.77001249 40.9375 227.8125 C36.05555756 230.94195028 31.13644699 231.00811105 25.5 230.375 C17.61814204 226.43407102 14.65245155 219.91323828 11.375 212.1875 C-0.240027 185.70659297 -16.51638289 162.23408986 -36.5 141.375 C-37.05139648 140.79105469 -37.60279297 140.20710937 -38.17089844 139.60546875 C-48.86968823 128.31857224 -60.35156839 118.16795539 -73.76049805 110.19360352 C-74.65101364 109.66291763 -75.54152924 109.13223175 -76.45903015 108.58546448 C-77.1325502 108.1860112 -77.80607025 107.78655792 -78.5 107.375 C-83.70101864 112.55286894 -88.89934907 117.73342053 -94.09424496 122.91743279 C-96.50641385 125.32437862 -98.91950601 127.73038355 -101.3347168 130.13427734 C-104.11001694 132.89665411 -106.88128687 135.66305389 -109.65234375 138.4296875 C-110.52213364 139.2943161 -111.39192352 140.1589447 -112.28807068 141.04977417 C-113.08882523 141.85045319 -113.88957977 142.6511322 -114.71459961 143.47607422 C-115.4229747 144.1822287 -116.13134979 144.88838318 -116.8611908 145.61593628 C-118.57484197 147.28928731 -118.57484197 147.28928731 -119.5 149.375 C-118.91734375 149.643125 -118.3346875 149.91125 -117.734375 150.1875 C-103.536203 157.73338162 -94.66508452 174.25340857 -89.578125 188.78515625 C-83.09849487 210.36044644 -85.06942359 232.75230537 -95.29711914 252.7331543 C-98.40962601 258.50700778 -102.06053587 263.53657829 -106.5 268.375 C-107.16386719 269.13039063 -107.82773437 269.88578125 -108.51171875 270.6640625 C-122.10289368 285.28525254 -141.46247986 293.70604621 -161.28125 294.625 C-172.64351896 294.97465645 -182.71364433 293.96258438 -193.5 290.375 C-194.55445313 290.024375 -195.60890625 289.67375 -196.6953125 289.3125 C-210.14085791 284.25725577 -223.45414316 274.44378527 -231.5 262.375 C-234.51225866 263.72510461 -236.59498779 265.22474056 -238.9152832 267.56323242 C-239.89931625 268.54747696 -239.89931625 268.54747696 -240.90322876 269.55160522 C-241.61192108 270.27063019 -242.3206134 270.98965515 -243.05078125 271.73046875 C-243.80571869 272.48832672 -244.56065613 273.24618469 -245.33847046 274.02700806 C-246.97651817 275.67266502 -248.61225126 277.3206284 -250.24594116 278.97061157 C-252.83024306 281.58041816 -255.42072234 284.18394535 -258.01293945 286.78588867 C-263.5142224 292.31004205 -269.00765669 297.84196025 -274.5 303.375 C-280.86374944 309.78590271 -287.23064979 316.19360621 -293.60604858 322.59292603 C-296.16050165 325.1603644 -298.70886578 327.73374465 -301.25708008 330.30737305 C-302.82083018 331.87838726 -304.38486122 333.44912189 -305.94921875 335.01953125 C-306.65791107 335.73855621 -307.36660339 336.45758118 -308.09677124 337.19839478 C-308.75279327 337.8545578 -309.40881531 338.51072083 -310.0847168 339.18676758 C-310.65103317 339.75752518 -311.21734955 340.32828278 -311.80082703 340.91633606 C-316.38830939 344.85448433 -320.73645923 344.80135846 -326.5859375 344.6875 C-331.88740101 344.11897844 -334.33972495 341.59634216 -337.875 337.875 C-340.22325726 332.81721514 -340.47097307 327.85814207 -339.5 322.375 C-336.25877462 316.60471587 -331.6630751 312.44243885 -326.87597656 307.93652344 C-325.07593979 306.2224248 -323.27642376 304.50777918 -321.47735596 302.79266357 C-320.52606056 301.88853477 -319.57476517 300.98440598 -318.59464264 300.05287933 C-315.60435431 297.20519964 -312.63522645 294.33611336 -309.67156982 291.46075439 C-309.1692179 290.97339019 -308.66686598 290.48602598 -308.14929128 289.98389316 C-306.07901263 287.97446622 -304.00950484 285.96424778 -301.94052362 283.95348501 C-296.09669804 278.27553896 -290.23413194 272.62085642 -284.30517578 267.03173828 C-279.58089075 262.5779682 -274.90609993 258.07822547 -270.28125167 253.52121186 C-267.8393069 251.11847916 -265.38068168 248.74344432 -262.86017609 246.42302704 C-250.66565757 235.47387089 -250.66565757 235.47387089 -245.36877441 220.53967285 C-245.21694826 215.01985792 -245.68835991 209.64743632 -246.31313324 204.16880035 C-247.471249 186.85408787 -235.47344772 169.74870001 -224.72265625 157.3203125 C-211.96755432 143.81491046 -192.07945064 134.29580351 -173.5 133.375 C-171.95869705 133.54416107 -170.42125616 133.75197481 -168.88964844 133.99365234 C-162.083247 134.9178729 -155.79896066 135.34561041 -149.71606445 131.71203613 C-143.20744278 126.62755529 -137.64410875 120.59161744 -132.11029053 114.48553467 C-129.82731008 111.99235653 -127.47872204 109.56256958 -125.13671875 107.125 C-116.9761528 99.37888245 -116.9761528 99.37888245 -110.5 90.375 C-111.03625 90.27703125 -111.5725 90.1790625 -112.125 90.078125 C-116.85178749 89.1763037 -121.50697745 88.13221122 -126.16088867 86.90429688 C-164.59492845 76.86634985 -205.05610183 81.95072264 -240.5 99.375 C-241.46945557 99.84244629 -241.46945557 99.84244629 -242.45849609 100.31933594 C-271.22428668 114.31350433 -296.81787937 137.61437269 -315.5 163.375 C-316.35491814 164.52384745 -317.21039429 165.67227984 -318.06640625 166.8203125 C-329.45185172 182.25468539 -339.54359197 199.21810312 -346.625 217.0625 C-349.02346737 222.87494181 -351.25573226 225.91180432 -356.5 229.375 C-361.7064736 231.1104912 -366.64934089 231.03844383 -371.8125 229.1875 C-376.27838135 226.17562653 -379.01847568 222.56033514 -380.5 217.375 C-380.87227198 211.93717001 -379.89155446 207.80769981 -377.75 202.875 C-377.44054443 202.14998291 -377.13108887 201.42496582 -376.81225586 200.67797852 C-364.16174213 171.75602557 -346.82223613 145.75068301 -325.48046875 122.54296875 C-323.58118692 120.46387326 -321.75811611 118.33541788 -319.9375 116.1875 C-317.07799236 112.90920863 -314.01681491 110.06932666 -310.6953125 107.265625 C-309.15584101 105.93981682 -307.65302875 104.57080508 -306.1796875 103.171875 C-278.2287679 76.67406131 -241.96608751 59.19947254 -204.5 51.375 C-203.64921875 51.19565918 -202.7984375 51.01631836 -201.921875 50.83154297 C-166.23841868 43.67922599 -125.33532508 47.78703299 -92.03027344 62.27832031 C-87.32248583 64.30682588 -87.32248583 64.30682588 -82.5 63.375 C-80.33455369 61.47382536 -78.33368828 59.5667151 -76.32617188 57.51000977 C-75.41322105 56.59289719 -75.41322105 56.59289719 -74.48182678 55.65725708 C-72.47055963 53.63369993 -70.46990517 51.59995955 -68.46875 49.56640625 C-67.07237492 48.15935576 -65.67518729 46.75311123 -64.27722168 45.34764099 C-60.59652993 41.64414763 -56.92405497 37.93262549 -53.25408936 34.21850586 C-47.38116258 28.27544936 -41.50083534 22.33980147 -35.61122131 16.41328239 C-33.55497939 14.3403285 -31.50527378 12.26106293 -29.45593262 10.18128967 C-28.19549605 8.9103919 -26.93480803 7.63974344 -25.67382812 6.36938477 C-24.82118126 5.49888237 -24.82118126 5.49888237 -23.9513092 4.61079407 C-17.13171565 -2.22921607 -9.10480931 -4.22723289 0 0 Z M-144.5 172.375 C-152.74901427 180.48515311 -160.98187328 188.61132188 -169.19435215 196.75847912 C-173.00803189 200.54081177 -176.82710541 204.31734822 -180.65893555 208.08129883 C-184.35487708 211.71217226 -188.0360786 215.35739803 -191.70741081 219.01314735 C-193.11246873 220.40709667 -194.52280738 221.7957434 -195.93838692 223.17900658 C-197.91650179 225.11372877 -199.8751975 227.06625675 -201.83032227 229.02416992 C-202.42301407 229.59529007 -203.01570587 230.16641022 -203.62635803 230.75483704 C-205.43781299 232.52505425 -205.43781299 232.52505425 -207.5 235.375 C-207.426108 240.96296958 -203.67539227 244.06283334 -200.02734375 247.94140625 C-190.44285701 257.17036334 -178.75277771 261.66292099 -165.56176758 261.69189453 C-153.23684378 261.45274761 -141.70465777 256.50881475 -132.75 248.0625 C-122.75107622 237.2871892 -118.85734437 225.8828167 -119.02954102 211.31298828 C-119.48065897 199.28077028 -124.46929051 188.72638187 -132.77734375 179.9765625 C-136.55258094 176.49656016 -139.69550689 174.21107722 -144.5 172.375 Z " fill="#000000" transform="translate(422.5,84.625)"/>
</svg>
