<?xml version="1.0" encoding="UTF-8"?>
<svg version="1.1" xmlns="http://www.w3.org/2000/svg" width="512" height="512">
<path d="M0 0 C0.94987793 0.19867676 1.89975586 0.39735352 2.87841797 0.60205078 C40.77797025 8.77190421 76.27953576 27.475713 104.26953125 54.38671875 C106.5796871 56.59772628 108.93248845 58.68898549 111.375 60.75 C114.62035515 63.56173776 117.41418419 66.60146182 120.18359375 69.87890625 C121.39265323 71.29077571 122.63545716 72.67444226 123.91015625 74.02734375 C140.53364374 91.70727718 153.69292887 112.47203546 164.9375 133.875 C165.46939941 134.88457764 166.00129883 135.89415527 166.54931641 136.93432617 C177.4045399 158.04094059 177.4045399 158.04094059 176 166 C174.11487364 171.27434291 171.80708544 174.91853498 167 178 C162.64950335 179.45016555 158.54665815 179.51070107 154 179 C146.11814204 175.05907102 143.15245155 168.53823828 139.875 160.8125 C128.259973 134.33159297 111.98361711 110.85908986 92 90 C91.44860352 89.41605469 90.89720703 88.83210938 90.32910156 88.23046875 C60.03826442 56.27456061 17.71732744 32.73240758 -26.99243164 30.87573242 C-57.38211155 30.14358753 -84.59907404 34.52966072 -112 48 C-112.96945557 48.46744629 -112.96945557 48.46744629 -113.95849609 48.94433594 C-142.72428668 62.93850433 -168.31787937 86.23937269 -187 112 C-187.85491814 113.14884745 -188.71039429 114.29727984 -189.56640625 115.4453125 C-200.95185172 130.87968539 -211.04359197 147.84310312 -218.125 165.6875 C-220.52346737 171.49994181 -222.75573226 174.53680432 -228 178 C-233.2064736 179.7354912 -238.14934089 179.66344383 -243.3125 177.8125 C-247.77838135 174.80062653 -250.51847568 171.18533514 -252 166 C-252.37227198 160.56217001 -251.39155446 156.43269981 -249.25 151.5 C-248.94054443 150.77498291 -248.63108887 150.04996582 -248.31225586 149.30297852 C-235.66174213 120.38102557 -218.32223613 94.37568301 -196.98046875 71.16796875 C-195.08118692 69.08887326 -193.25811611 66.96041788 -191.4375 64.8125 C-188.57799236 61.53420863 -185.51681491 58.69432666 -182.1953125 55.890625 C-180.65584101 54.56481682 -179.15302875 53.19580508 -177.6796875 51.796875 C-149.72287411 25.29347392 -113.46906101 7.83704024 -76 0 C-74.7318042 -0.26901123 -74.7318042 -0.26901123 -73.43798828 -0.54345703 C-50.00953613 -5.27614536 -23.34957753 -4.95294069 0 0 Z " fill="#000000" transform="translate(294,136)"/>
<path d="M0 0 C22.67543993 -0.61284973 43.03233352 7.0083191 59.96875 22.15625 C74.09448285 35.85891597 83.5762763 54.34533251 84.3046875 74.1953125 C84.62769224 97.45516489 80.07656306 117.60088969 63.96875 135.15625 C63.30488281 135.91164063 62.64101563 136.66703125 61.95703125 137.4453125 C48.46579182 151.95899337 29.06082325 160.57815179 9.33984375 161.37109375 C-15.17007639 162.00862825 -35.83528562 154.91771636 -53.78125 137.96875 C-65.02805383 126.19807758 -73.87452519 110.48183779 -76.03125 94.15625 C-76.16402344 93.15851563 -76.29679688 92.16078125 -76.43359375 91.1328125 C-78.7809472 68.08127417 -72.52104583 47.11068867 -58.25 28.84375 C-45.4335478 13.31959663 -26.89853053 3.53428991 -7.03125 0.40625 C-4.69005838 0.20784393 -2.34672328 0.12096512 0 0 Z M-32.03125 49.15625 C-41.79632618 61.87400732 -44.68752507 74.40031144 -43.03125 90.15625 C-42.19127334 94.16265555 -40.92098469 97.53474607 -39.03125 101.15625 C-38.58394531 102.02636719 -38.13664062 102.89648438 -37.67578125 103.79296875 C-31.26021235 115.29971297 -22.20082631 122.22519252 -9.78125 126.53125 C2.99392963 130.09990346 14.89310549 128.56696239 26.7578125 122.80078125 C36.14966158 117.50899922 42.06499472 110.69525523 46.96875 101.15625 C47.38511719 100.35832031 47.80148437 99.56039062 48.23046875 98.73828125 C52.86500929 88.24958424 52.74800695 74.89190196 48.96875 64.15625 C43.23500017 51.49690346 34.15283127 41.16110334 20.96875 36.15625 C1.68641384 29.95167026 -18.05224441 33.90406361 -32.03125 49.15625 Z " fill="#000000" transform="translate(252.03125,217.84375)"/>
</svg>
